<?xml version="1.0" encoding="UTF-8"?>
<svg xmlns="http://www.w3.org/2000/svg" xmlns:xlink="http://www.w3.org/1999/xlink" width="10px" height="6px" viewBox="0 0 10 6" version="1.1">
<g id="surface1">
<path style=" stroke:none;fill-rule:nonzero;fill:rgb(0%,0%,0%);fill-opacity:1;" d="M 4.90625 0.0859375 C 4.976562 0.117188 4.992188 0.246094 4.929688 0.269531 C 4.914062 0.273438 4.902344 0.292969 4.902344 0.3125 C 4.910156 0.390625 4.902344 0.425781 4.875 0.433594 C 4.8125 0.460938 4.8125 0.492188 4.875 0.566406 C 4.914062 0.613281 4.929688 0.648438 4.925781 0.664062 C 4.917969 0.679688 4.914062 0.710938 4.917969 0.730469 C 4.917969 0.761719 4.914062 0.765625 4.902344 0.75 C 4.894531 0.734375 4.890625 0.742188 4.882812 0.773438 C 4.878906 0.800781 4.871094 0.835938 4.863281 0.847656 C 4.855469 0.867188 4.859375 0.878906 4.875 0.878906 C 4.894531 0.875 4.949219 0.769531 4.949219 0.726562 C 4.949219 0.667969 5 0.601562 5.042969 0.601562 C 5.066406 0.601562 5.082031 0.59375 5.078125 0.585938 C 5.074219 0.578125 5.058594 0.574219 5.046875 0.578125 C 5.03125 0.585938 5.027344 0.578125 5.035156 0.550781 C 5.058594 0.460938 5.144531 0.339844 5.207031 0.308594 L 5.246094 0.292969 L 5.207031 0.296875 C 5.1875 0.300781 5.160156 0.308594 5.148438 0.3125 C 5.136719 0.3125 5.125 0.300781 5.121094 0.277344 C 5.109375 0.210938 5.054688 0.140625 4.980469 0.101562 C 4.941406 0.0820312 4.898438 0.0664062 4.886719 0.0664062 C 4.875 0.0664062 4.882812 0.078125 4.90625 0.0859375 Z M 4.90625 0.0859375 "/>
<path style=" stroke:none;fill-rule:nonzero;fill:rgb(0%,0%,0%);fill-opacity:1;" d="M 4.703125 0.167969 C 4.683594 0.179688 4.667969 0.203125 4.667969 0.21875 C 4.671875 0.238281 4.664062 0.242188 4.648438 0.234375 C 4.625 0.226562 4.625 0.230469 4.640625 0.246094 C 4.65625 0.261719 4.664062 0.261719 4.6875 0.238281 C 4.699219 0.21875 4.703125 0.210938 4.695312 0.21875 C 4.683594 0.222656 4.675781 0.222656 4.675781 0.210938 C 4.675781 0.203125 4.691406 0.1875 4.710938 0.179688 C 4.734375 0.171875 4.75 0.160156 4.75 0.15625 C 4.75 0.144531 4.75 0.144531 4.703125 0.167969 Z M 4.703125 0.167969 "/>
<path style=" stroke:none;fill-rule:nonzero;fill:rgb(0%,0%,0%);fill-opacity:1;" d="M 4.582031 0.316406 C 4.53125 0.394531 4.535156 0.414062 4.605469 0.417969 L 4.667969 0.421875 L 4.566406 0.375 L 4.597656 0.324219 C 4.644531 0.257812 4.628906 0.25 4.582031 0.316406 Z M 4.582031 0.316406 "/>
<path style=" stroke:none;fill-rule:nonzero;fill:rgb(0%,0%,0%);fill-opacity:1;" d="M 5.382812 0.292969 C 5.378906 0.300781 5.378906 0.308594 5.386719 0.308594 C 5.398438 0.308594 5.40625 0.300781 5.40625 0.292969 C 5.40625 0.28125 5.402344 0.277344 5.398438 0.277344 C 5.394531 0.277344 5.386719 0.28125 5.382812 0.292969 Z M 5.382812 0.292969 "/>
<path style=" stroke:none;fill-rule:nonzero;fill:rgb(0%,0%,0%);fill-opacity:1;" d="M 5.433594 0.316406 C 5.453125 0.339844 5.449219 0.339844 5.425781 0.332031 C 5.402344 0.320312 5.402344 0.320312 5.417969 0.347656 C 5.4375 0.371094 5.433594 0.375 5.410156 0.375 C 5.386719 0.375 5.386719 0.378906 5.402344 0.390625 C 5.421875 0.398438 5.414062 0.417969 5.367188 0.460938 C 5.339844 0.496094 5.3125 0.53125 5.3125 0.546875 C 5.3125 0.582031 5.269531 0.652344 5.242188 0.652344 C 5.230469 0.652344 5.246094 0.675781 5.277344 0.703125 C 5.308594 0.730469 5.34375 0.777344 5.359375 0.800781 C 5.382812 0.84375 5.382812 0.847656 5.324219 0.976562 C 5.292969 1.046875 5.269531 1.113281 5.269531 1.125 C 5.269531 1.136719 5.257812 1.152344 5.246094 1.160156 C 5.222656 1.179688 5.222656 1.1875 5.242188 1.246094 C 5.253906 1.28125 5.269531 1.335938 5.273438 1.371094 C 5.28125 1.414062 5.292969 1.433594 5.3125 1.433594 C 5.335938 1.433594 5.339844 1.421875 5.332031 1.371094 C 5.328125 1.316406 5.332031 1.300781 5.371094 1.257812 C 5.398438 1.234375 5.421875 1.203125 5.421875 1.191406 C 5.421875 1.179688 5.429688 1.171875 5.441406 1.171875 C 5.457031 1.171875 5.464844 1.164062 5.464844 1.15625 C 5.464844 1.144531 5.476562 1.140625 5.492188 1.140625 C 5.507812 1.140625 5.53125 1.125 5.542969 1.105469 C 5.554688 1.089844 5.574219 1.074219 5.582031 1.074219 C 5.59375 1.074219 5.601562 1.066406 5.601562 1.058594 C 5.601562 1.046875 5.59375 1.042969 5.582031 1.042969 C 5.566406 1.042969 5.558594 1.046875 5.558594 1.058594 C 5.558594 1.066406 5.539062 1.074219 5.519531 1.074219 C 5.476562 1.074219 5.46875 1.054688 5.503906 1.019531 C 5.558594 0.960938 5.605469 0.828125 5.617188 0.6875 C 5.636719 0.507812 5.636719 0.507812 5.617188 0.535156 C 5.601562 0.558594 5.601562 0.558594 5.609375 0.535156 C 5.617188 0.488281 5.65625 0.507812 5.652344 0.5625 C 5.652344 0.585938 5.652344 0.601562 5.65625 0.589844 C 5.664062 0.578125 5.671875 0.570312 5.679688 0.570312 C 5.691406 0.570312 5.691406 0.578125 5.6875 0.585938 C 5.683594 0.59375 5.6875 0.613281 5.699219 0.625 C 5.730469 0.660156 5.738281 0.65625 5.730469 0.617188 C 5.726562 0.597656 5.730469 0.585938 5.738281 0.59375 C 5.742188 0.597656 5.746094 0.617188 5.746094 0.632812 C 5.75 0.671875 5.8125 0.796875 5.832031 0.796875 C 5.839844 0.796875 5.847656 0.808594 5.847656 0.820312 C 5.847656 0.835938 5.855469 0.847656 5.863281 0.847656 C 5.871094 0.847656 5.878906 0.855469 5.878906 0.871094 C 5.878906 0.886719 5.890625 0.894531 5.910156 0.894531 C 5.929688 0.894531 5.953125 0.910156 5.964844 0.925781 C 5.980469 0.957031 5.980469 0.964844 5.941406 0.976562 C 5.917969 0.988281 5.875 0.996094 5.84375 0.996094 C 5.816406 0.992188 5.761719 1.003906 5.726562 1.015625 L 5.660156 1.035156 L 5.722656 1.0625 C 5.78125 1.085938 5.785156 1.089844 5.773438 1.125 C 5.765625 1.148438 5.761719 1.222656 5.765625 1.296875 C 5.769531 1.410156 5.769531 1.433594 5.75 1.433594 C 5.730469 1.433594 5.726562 1.445312 5.726562 1.472656 C 5.726562 1.515625 5.722656 1.515625 5.644531 1.507812 C 5.59375 1.503906 5.550781 1.507812 5.523438 1.523438 C 5.484375 1.542969 5.480469 1.542969 5.480469 1.519531 C 5.480469 1.492188 5.476562 1.496094 5.449219 1.527344 C 5.417969 1.574219 5.421875 1.574219 5.390625 1.503906 L 5.367188 1.457031 L 5.363281 1.507812 C 5.359375 1.550781 5.351562 1.5625 5.332031 1.554688 C 5.3125 1.546875 5.300781 1.5625 5.285156 1.613281 C 5.277344 1.652344 5.253906 1.699219 5.234375 1.722656 C 5.222656 1.742188 5.199219 1.789062 5.191406 1.824219 C 5.179688 1.878906 5.167969 1.890625 5.144531 1.882812 C 5.125 1.875 5.117188 1.882812 5.117188 1.898438 C 5.117188 1.917969 5.097656 1.957031 5.082031 1.992188 C 5.054688 2.046875 5.039062 2.054688 5.007812 2.054688 C 4.972656 2.046875 4.964844 2.054688 4.953125 2.101562 C 4.941406 2.144531 4.929688 2.15625 4.898438 2.15625 C 4.875 2.160156 4.84375 2.171875 4.828125 2.1875 C 4.8125 2.203125 4.789062 2.210938 4.777344 2.210938 C 4.765625 2.210938 4.75 2.222656 4.746094 2.230469 C 4.742188 2.242188 4.710938 2.253906 4.667969 2.253906 C 4.621094 2.253906 4.59375 2.265625 4.578125 2.285156 C 4.566406 2.300781 4.539062 2.316406 4.519531 2.316406 C 4.496094 2.316406 4.480469 2.324219 4.488281 2.328125 C 4.488281 2.335938 4.480469 2.34375 4.46875 2.34375 C 4.457031 2.34375 4.449219 2.351562 4.453125 2.367188 C 4.472656 2.414062 4.398438 2.429688 4.15625 2.433594 C 3.980469 2.433594 3.914062 2.429688 3.890625 2.414062 C 3.875 2.402344 3.832031 2.390625 3.804688 2.386719 C 3.773438 2.382812 3.730469 2.367188 3.707031 2.347656 C 3.671875 2.324219 3.664062 2.324219 3.652344 2.34375 C 3.644531 2.359375 3.640625 2.359375 3.640625 2.347656 C 3.640625 2.335938 3.617188 2.316406 3.589844 2.300781 C 3.5625 2.285156 3.535156 2.269531 3.53125 2.261719 C 3.527344 2.253906 3.5 2.234375 3.472656 2.21875 C 3.441406 2.199219 3.410156 2.171875 3.402344 2.152344 C 3.394531 2.132812 3.378906 2.105469 3.367188 2.09375 C 3.355469 2.078125 3.351562 2.054688 3.355469 2.035156 C 3.371094 1.984375 3.355469 1.996094 3.335938 2.046875 C 3.324219 2.085938 3.328125 2.109375 3.355469 2.164062 C 3.371094 2.203125 3.386719 2.253906 3.390625 2.273438 C 3.394531 2.296875 3.414062 2.34375 3.4375 2.378906 C 3.539062 2.539062 3.53125 2.523438 3.507812 2.570312 C 3.488281 2.601562 3.488281 2.605469 3.507812 2.582031 C 3.519531 2.566406 3.53125 2.554688 3.539062 2.554688 C 3.542969 2.554688 3.582031 2.589844 3.621094 2.628906 C 3.730469 2.746094 3.789062 2.796875 3.796875 2.789062 C 3.796875 2.785156 3.855469 2.808594 3.921875 2.839844 C 3.988281 2.875 4.109375 2.917969 4.1875 2.941406 C 4.324219 2.976562 4.359375 2.980469 4.773438 2.984375 C 5.261719 2.992188 5.535156 2.972656 5.535156 2.929688 C 5.535156 2.914062 5.558594 2.898438 5.601562 2.890625 C 5.726562 2.867188 5.882812 2.824219 5.902344 2.8125 C 5.910156 2.804688 5.929688 2.800781 5.945312 2.808594 C 5.960938 2.816406 5.96875 2.8125 5.960938 2.789062 C 5.949219 2.761719 5.953125 2.761719 5.972656 2.789062 C 5.996094 2.816406 5.996094 2.828125 5.976562 2.855469 C 5.957031 2.890625 5.957031 2.894531 5.988281 2.902344 C 6.003906 2.90625 6.046875 2.894531 6.078125 2.878906 L 6.140625 2.84375 L 6.175781 2.878906 C 6.214844 2.921875 6.242188 3.082031 6.214844 3.109375 C 6.207031 3.117188 6.203125 3.152344 6.207031 3.183594 C 6.214844 3.230469 6.207031 3.261719 6.175781 3.304688 C 6.152344 3.339844 6.140625 3.378906 6.144531 3.390625 C 6.152344 3.40625 6.140625 3.4375 6.125 3.460938 C 6.113281 3.488281 6.101562 3.515625 6.105469 3.527344 C 6.105469 3.542969 6.101562 3.554688 6.089844 3.5625 C 6.082031 3.570312 6.070312 3.601562 6.0625 3.636719 C 6.054688 3.707031 6.023438 3.757812 5.988281 3.757812 C 5.976562 3.757812 5.96875 3.773438 5.96875 3.789062 C 5.96875 3.808594 5.960938 3.828125 5.945312 3.832031 C 5.933594 3.835938 5.910156 3.886719 5.890625 3.941406 C 5.855469 4.039062 5.835938 4.054688 5.742188 4.074219 C 5.71875 4.078125 5.699219 4.089844 5.695312 4.101562 C 5.683594 4.136719 5.613281 4.199219 5.589844 4.199219 C 5.574219 4.199219 5.546875 4.210938 5.527344 4.226562 C 5.492188 4.25 5.375 4.292969 5.316406 4.296875 C 5.289062 4.300781 5.265625 4.382812 5.277344 4.429688 C 5.28125 4.460938 5.28125 4.476562 5.261719 4.484375 C 5.25 4.488281 5.238281 4.507812 5.238281 4.523438 C 5.238281 4.539062 5.226562 4.558594 5.214844 4.570312 C 5.203125 4.582031 5.191406 4.601562 5.191406 4.613281 C 5.191406 4.644531 5.15625 4.667969 5.132812 4.652344 C 5.113281 4.640625 5.105469 4.648438 5.097656 4.683594 C 5.089844 4.722656 5.089844 4.722656 5.078125 4.691406 C 5.070312 4.667969 5.0625 4.65625 5.054688 4.664062 C 5.046875 4.667969 5.042969 4.679688 5.046875 4.691406 C 5.054688 4.703125 5.046875 4.695312 5.03125 4.675781 C 5.019531 4.660156 5.003906 4.625 5 4.601562 C 4.984375 4.519531 4.925781 4.5625 4.941406 4.644531 C 4.945312 4.675781 4.945312 4.6875 4.9375 4.671875 C 4.925781 4.652344 4.921875 4.652344 4.914062 4.671875 C 4.90625 4.691406 4.902344 4.6875 4.890625 4.667969 C 4.875 4.648438 4.871094 4.65625 4.871094 4.695312 C 4.867188 4.722656 4.867188 4.730469 4.863281 4.714844 C 4.859375 4.699219 4.839844 4.683594 4.824219 4.683594 C 4.804688 4.683594 4.789062 4.671875 4.785156 4.648438 C 4.777344 4.617188 4.773438 4.617188 4.765625 4.644531 C 4.757812 4.664062 4.75 4.714844 4.75 4.761719 C 4.75 4.824219 4.746094 4.847656 4.722656 4.851562 C 4.664062 4.867188 4.460938 4.851562 4.414062 4.824219 C 4.386719 4.8125 4.359375 4.800781 4.355469 4.808594 C 4.347656 4.8125 4.304688 4.796875 4.257812 4.773438 C 4.210938 4.753906 4.160156 4.734375 4.148438 4.734375 C 4.136719 4.734375 4.125 4.726562 4.125 4.714844 C 4.125 4.707031 4.113281 4.703125 4.097656 4.703125 C 4.082031 4.710938 4.0625 4.703125 4.050781 4.683594 C 4.03125 4.648438 3.996094 4.640625 4.011719 4.671875 C 4.019531 4.683594 4 4.667969 3.972656 4.636719 C 3.945312 4.605469 3.925781 4.59375 3.933594 4.609375 C 3.949219 4.660156 3.917969 4.636719 3.886719 4.578125 C 3.867188 4.542969 3.835938 4.496094 3.8125 4.46875 C 3.792969 4.445312 3.75 4.371094 3.714844 4.304688 C 3.660156 4.183594 3.65625 4.179688 3.644531 3.941406 C 3.636719 3.71875 3.632812 3.699219 3.605469 3.699219 C 3.585938 3.695312 3.578125 3.707031 3.578125 3.726562 C 3.578125 3.746094 3.570312 3.757812 3.5625 3.75 C 3.554688 3.746094 3.554688 3.765625 3.558594 3.800781 C 3.5625 3.839844 3.5625 3.855469 3.550781 3.851562 C 3.535156 3.839844 3.515625 3.886719 3.515625 3.945312 C 3.515625 3.988281 3.453125 4.066406 3.417969 4.066406 C 3.402344 4.066406 3.394531 4.058594 3.398438 4.046875 C 3.410156 4.019531 3.386719 3.972656 3.371094 3.992188 C 3.363281 4 3.367188 4.011719 3.378906 4.019531 C 3.398438 4.03125 3.398438 4.035156 3.378906 4.035156 C 3.339844 4.035156 3.332031 4.015625 3.355469 3.972656 C 3.390625 3.921875 3.375 3.90625 3.300781 3.90625 C 3.238281 3.90625 3.222656 3.898438 3.179688 3.824219 C 3.167969 3.800781 3.164062 3.800781 3.152344 3.824219 C 3.128906 3.855469 3.105469 3.953125 3.105469 4.007812 C 3.105469 4.058594 3.128906 4.117188 3.164062 4.140625 C 3.179688 4.15625 3.191406 4.199219 3.195312 4.265625 C 3.199219 4.375 3.203125 4.375 3.238281 4.355469 C 3.265625 4.34375 3.28125 4.34375 3.324219 4.382812 C 3.378906 4.421875 3.472656 4.558594 3.472656 4.589844 C 3.472656 4.617188 3.445312 4.605469 3.4375 4.578125 C 3.429688 4.546875 3.429688 4.546875 3.425781 4.574219 C 3.425781 4.589844 3.414062 4.605469 3.402344 4.605469 C 3.363281 4.605469 3.359375 4.644531 3.382812 4.730469 C 3.414062 4.824219 3.421875 4.914062 3.402344 4.945312 C 3.394531 4.960938 3.398438 4.964844 3.410156 4.957031 C 3.425781 4.953125 3.46875 4.9375 3.515625 4.917969 C 3.613281 4.882812 3.695312 4.800781 3.714844 4.71875 C 3.730469 4.660156 3.734375 4.65625 3.808594 4.636719 C 3.875 4.617188 3.890625 4.617188 3.90625 4.640625 C 3.984375 4.757812 4.183594 4.949219 4.339844 5.054688 C 4.53125 5.1875 4.765625 5.242188 5.140625 5.246094 C 5.304688 5.246094 5.34375 5.25 5.34375 5.269531 C 5.34375 5.285156 5.355469 5.28125 5.382812 5.253906 C 5.40625 5.230469 5.414062 5.210938 5.40625 5.210938 C 5.398438 5.207031 5.390625 5.191406 5.390625 5.175781 C 5.390625 5.160156 5.378906 5.132812 5.367188 5.109375 C 5.324219 5.050781 5.3125 4.886719 5.339844 4.808594 C 5.402344 4.644531 5.476562 4.574219 5.613281 4.546875 C 5.738281 4.519531 5.84375 4.539062 5.933594 4.605469 C 6.042969 4.675781 6.144531 4.847656 6.125 4.921875 C 6.121094 4.945312 6.113281 4.957031 6.105469 4.953125 C 6.097656 4.949219 6.089844 4.964844 6.089844 4.988281 C 6.089844 5.007812 6.097656 5.027344 6.105469 5.019531 C 6.125 5.007812 6.175781 5.179688 6.179688 5.28125 C 6.179688 5.351562 6.175781 5.367188 6.167969 5.34375 C 6.15625 5.320312 6.152344 5.332031 6.160156 5.386719 C 6.167969 5.425781 6.164062 5.453125 6.160156 5.445312 C 6.152344 5.4375 6.140625 5.449219 6.128906 5.46875 C 6.121094 5.488281 6.097656 5.511719 6.082031 5.523438 C 6.066406 5.53125 6.046875 5.546875 6.042969 5.554688 C 6.035156 5.5625 6.019531 5.5625 6 5.558594 C 5.972656 5.550781 5.96875 5.558594 5.972656 5.589844 C 5.980469 5.613281 5.988281 5.640625 6 5.652344 C 6.007812 5.667969 6.019531 5.714844 6.023438 5.765625 C 6.03125 5.84375 6.03125 5.855469 6.003906 5.851562 C 5.9375 5.851562 5.929688 5.855469 5.953125 5.875 C 5.96875 5.882812 5.980469 5.882812 5.996094 5.871094 C 6.007812 5.859375 6.015625 5.859375 6.015625 5.871094 C 6.015625 5.910156 6.0625 5.882812 6.140625 5.804688 C 6.207031 5.734375 6.230469 5.695312 6.253906 5.613281 C 6.277344 5.53125 6.292969 5.511719 6.335938 5.484375 C 6.371094 5.464844 6.402344 5.425781 6.433594 5.363281 C 6.472656 5.285156 6.488281 5.269531 6.546875 5.246094 C 6.648438 5.210938 6.761719 5.09375 6.828125 4.960938 C 6.886719 4.847656 6.941406 4.609375 6.941406 4.492188 C 6.941406 4.460938 6.96875 4.382812 7 4.316406 L 7.058594 4.191406 L 7.054688 3.972656 C 7.050781 3.855469 7.050781 3.722656 7.046875 3.679688 C 7.046875 3.636719 7.050781 3.523438 7.058594 3.421875 C 7.070312 3.175781 7.058594 3.070312 7.003906 3.003906 C 6.980469 2.976562 6.957031 2.960938 6.957031 2.972656 C 6.957031 2.984375 6.960938 2.992188 6.96875 2.992188 C 6.976562 2.992188 6.980469 3.015625 6.980469 3.039062 C 6.980469 3.066406 6.976562 3.085938 6.972656 3.082031 C 6.964844 3.078125 6.957031 3.085938 6.953125 3.097656 C 6.941406 3.128906 6.910156 3.132812 6.914062 3.101562 C 6.925781 3.035156 6.871094 2.960938 6.84375 3.007812 C 6.832031 3.027344 6.773438 3.015625 6.761719 2.992188 C 6.75 2.976562 6.65625 2.929688 6.636719 2.929688 C 6.601562 2.925781 6.566406 2.890625 6.554688 2.84375 C 6.546875 2.804688 6.550781 2.796875 6.566406 2.808594 C 6.574219 2.816406 6.570312 2.800781 6.550781 2.78125 C 6.53125 2.753906 6.511719 2.695312 6.496094 2.601562 C 6.480469 2.523438 6.457031 2.421875 6.445312 2.375 C 6.421875 2.296875 6.421875 2.289062 6.453125 2.175781 C 6.492188 2.035156 6.496094 1.898438 6.464844 1.71875 C 6.417969 1.472656 6.394531 1.421875 6.121094 1.007812 C 6.007812 0.835938 5.726562 0.519531 5.691406 0.519531 C 5.675781 0.519531 5.621094 0.46875 5.566406 0.40625 C 5.511719 0.34375 5.457031 0.292969 5.441406 0.292969 C 5.421875 0.292969 5.421875 0.296875 5.433594 0.316406 Z M 5.441406 1.660156 C 5.445312 1.675781 5.441406 1.691406 5.433594 1.691406 C 5.425781 1.691406 5.421875 1.675781 5.421875 1.660156 C 5.421875 1.640625 5.421875 1.625 5.425781 1.625 C 5.429688 1.625 5.433594 1.640625 5.441406 1.660156 Z M 6.105469 1.789062 C 6.140625 1.808594 6.167969 1.832031 6.167969 1.839844 C 6.167969 1.851562 6.160156 1.851562 6.152344 1.847656 C 6.144531 1.839844 6.136719 1.847656 6.136719 1.859375 C 6.136719 1.875 6.125 1.886719 6.113281 1.886719 C 6.101562 1.886719 6.089844 1.898438 6.089844 1.910156 C 6.089844 1.917969 6.066406 1.957031 6.035156 1.988281 C 6.003906 2.015625 5.96875 2.070312 5.953125 2.101562 C 5.933594 2.136719 5.917969 2.164062 5.910156 2.164062 C 5.902344 2.164062 5.882812 2.1875 5.871094 2.21875 C 5.851562 2.25 5.824219 2.285156 5.808594 2.292969 C 5.789062 2.304688 5.765625 2.328125 5.761719 2.34375 C 5.738281 2.386719 5.546875 2.539062 5.496094 2.546875 C 5.472656 2.554688 5.449219 2.5625 5.449219 2.570312 C 5.449219 2.578125 5.433594 2.582031 5.414062 2.582031 C 5.378906 2.582031 5.378906 2.582031 5.394531 2.441406 C 5.40625 2.300781 5.425781 2.253906 5.53125 2.085938 C 5.644531 1.902344 5.84375 1.761719 5.988281 1.757812 C 6.019531 1.757812 6.074219 1.773438 6.105469 1.789062 Z M 3.367188 2.125 C 3.375 2.148438 3.378906 2.171875 3.375 2.175781 C 3.371094 2.179688 3.363281 2.160156 3.351562 2.132812 C 3.332031 2.070312 3.34375 2.066406 3.367188 2.125 Z M 6.3125 2.636719 C 6.324219 2.652344 6.335938 2.667969 6.332031 2.667969 C 6.324219 2.667969 6.3125 2.652344 6.296875 2.636719 C 6.28125 2.617188 6.269531 2.601562 6.277344 2.601562 C 6.28125 2.601562 6.296875 2.617188 6.3125 2.636719 Z M 5.382812 2.785156 C 5.40625 2.808594 5.398438 2.816406 5.304688 2.84375 C 5.179688 2.882812 5.070312 2.898438 5.070312 2.878906 C 5.070312 2.871094 5.085938 2.851562 5.109375 2.835938 C 5.128906 2.820312 5.175781 2.785156 5.210938 2.753906 C 5.273438 2.703125 5.277344 2.703125 5.316406 2.730469 C 5.339844 2.746094 5.371094 2.769531 5.382812 2.785156 Z M 6.015625 2.765625 C 6.015625 2.773438 6.007812 2.78125 5.996094 2.78125 C 5.988281 2.78125 5.988281 2.773438 5.992188 2.765625 C 5.996094 2.757812 6.003906 2.75 6.007812 2.75 C 6.011719 2.75 6.015625 2.757812 6.015625 2.765625 Z M 6.914062 3.171875 C 6.914062 3.179688 6.910156 3.1875 6.90625 3.1875 C 6.902344 3.1875 6.894531 3.179688 6.890625 3.171875 C 6.886719 3.164062 6.886719 3.15625 6.894531 3.15625 C 6.90625 3.15625 6.914062 3.164062 6.914062 3.171875 Z M 3.199219 3.921875 C 3.199219 3.929688 3.191406 3.9375 3.179688 3.9375 C 3.171875 3.9375 3.167969 3.929688 3.175781 3.921875 C 3.179688 3.910156 3.1875 3.90625 3.191406 3.90625 C 3.195312 3.90625 3.199219 3.910156 3.199219 3.921875 Z M 6.722656 4.066406 C 6.722656 4.089844 6.71875 4.109375 6.710938 4.105469 C 6.707031 4.101562 6.691406 4.128906 6.679688 4.160156 C 6.667969 4.195312 6.644531 4.238281 6.625 4.253906 C 6.605469 4.269531 6.59375 4.292969 6.59375 4.304688 C 6.59375 4.316406 6.578125 4.328125 6.558594 4.335938 C 6.539062 4.339844 6.496094 4.363281 6.464844 4.382812 C 6.433594 4.40625 6.398438 4.425781 6.386719 4.425781 C 6.375 4.425781 6.359375 4.441406 6.355469 4.464844 C 6.351562 4.488281 6.335938 4.507812 6.320312 4.507812 C 6.289062 4.507812 6.167969 4.414062 6.167969 4.386719 C 6.167969 4.339844 6.464844 4.066406 6.519531 4.066406 C 6.527344 4.066406 6.542969 4.054688 6.554688 4.042969 C 6.570312 4.027344 6.609375 4.019531 6.652344 4.019531 C 6.722656 4.019531 6.726562 4.019531 6.722656 4.066406 Z M 6.722656 4.066406 "/>
<path style=" stroke:none;fill-rule:nonzero;fill:rgb(0%,0%,0%);fill-opacity:1;" d="M 4.605469 0.351562 C 4.597656 0.375 4.597656 0.378906 4.613281 0.363281 C 4.625 0.351562 4.628906 0.339844 4.625 0.332031 C 4.621094 0.328125 4.613281 0.335938 4.605469 0.351562 Z M 4.605469 0.351562 "/>
<path style=" stroke:none;fill-rule:nonzero;fill:rgb(0%,0%,0%);fill-opacity:1;" d="M 4.433594 0.5 C 4.449219 0.503906 4.472656 0.503906 4.488281 0.5 C 4.503906 0.496094 4.488281 0.492188 4.460938 0.492188 C 4.433594 0.492188 4.417969 0.496094 4.433594 0.5 Z M 4.433594 0.5 "/>
<path style=" stroke:none;fill-rule:nonzero;fill:rgb(0%,0%,0%);fill-opacity:1;" d="M 4.320312 0.515625 C 4.332031 0.519531 4.34375 0.519531 4.351562 0.515625 C 4.355469 0.507812 4.347656 0.503906 4.332031 0.507812 C 4.3125 0.507812 4.308594 0.511719 4.320312 0.515625 Z M 4.320312 0.515625 "/>
<path style=" stroke:none;fill-rule:nonzero;fill:rgb(0%,0%,0%);fill-opacity:1;" d="M 4.082031 0.621094 C 4.046875 0.648438 4.046875 0.652344 4.074219 0.636719 C 4.09375 0.625 4.113281 0.609375 4.117188 0.601562 C 4.132812 0.578125 4.121094 0.582031 4.082031 0.621094 Z M 4.082031 0.621094 "/>
<path style=" stroke:none;fill-rule:nonzero;fill:rgb(0%,0%,0%);fill-opacity:1;" d="M 4.550781 0.671875 C 4.511719 0.761719 4.515625 0.792969 4.558594 0.808594 C 4.625 0.824219 4.648438 0.808594 4.664062 0.742188 C 4.695312 0.605469 4.605469 0.546875 4.550781 0.671875 Z M 4.605469 0.742188 C 4.59375 0.757812 4.578125 0.734375 4.59375 0.714844 C 4.601562 0.695312 4.605469 0.695312 4.609375 0.714844 C 4.613281 0.726562 4.613281 0.738281 4.605469 0.742188 Z M 4.605469 0.742188 "/>
<path style=" stroke:none;fill-rule:nonzero;fill:rgb(0%,0%,0%);fill-opacity:1;" d="M 5.113281 0.613281 C 5.125 0.617188 5.136719 0.617188 5.140625 0.613281 C 5.148438 0.605469 5.136719 0.601562 5.121094 0.605469 C 5.105469 0.605469 5.101562 0.609375 5.113281 0.613281 Z M 5.113281 0.613281 "/>
<path style=" stroke:none;fill-rule:nonzero;fill:rgb(0%,0%,0%);fill-opacity:1;" d="M 5.644531 0.628906 C 5.640625 0.636719 5.640625 0.65625 5.648438 0.675781 C 5.660156 0.703125 5.664062 0.703125 5.664062 0.664062 C 5.664062 0.617188 5.65625 0.605469 5.644531 0.628906 Z M 5.644531 0.628906 "/>
<path style=" stroke:none;fill-rule:nonzero;fill:rgb(0%,0%,0%);fill-opacity:1;" d="M 3.949219 0.734375 C 3.921875 0.773438 3.921875 0.773438 3.953125 0.742188 C 3.96875 0.730469 3.988281 0.722656 3.996094 0.726562 C 4.003906 0.734375 4.003906 0.730469 4 0.71875 C 3.984375 0.691406 3.984375 0.691406 3.949219 0.734375 Z M 3.949219 0.734375 "/>
<path style=" stroke:none;fill-rule:nonzero;fill:rgb(0%,0%,0%);fill-opacity:1;" d="M 5.019531 0.808594 C 4.976562 0.859375 4.957031 0.929688 4.980469 0.96875 C 5 1.011719 5.054688 1.03125 5.074219 1.007812 C 5.097656 0.984375 5.105469 0.832031 5.085938 0.804688 C 5.0625 0.773438 5.050781 0.773438 5.019531 0.808594 Z M 5.054688 0.917969 C 5.054688 0.921875 5.046875 0.929688 5.039062 0.933594 C 5.03125 0.941406 5.023438 0.9375 5.023438 0.929688 C 5.023438 0.917969 5.03125 0.910156 5.039062 0.910156 C 5.046875 0.910156 5.054688 0.914062 5.054688 0.917969 Z M 5.054688 0.917969 "/>
<path style=" stroke:none;fill-rule:nonzero;fill:rgb(0%,0%,0%);fill-opacity:1;" d="M 3.921875 0.898438 C 3.875 0.925781 3.867188 0.949219 3.890625 0.980469 C 3.90625 0.992188 3.910156 1.015625 3.90625 1.023438 C 3.898438 1.039062 3.90625 1.042969 3.929688 1.039062 C 3.972656 1.03125 4.039062 0.9375 4.023438 0.902344 C 4.015625 0.875 3.964844 0.871094 3.921875 0.898438 Z M 3.921875 0.898438 "/>
<path style=" stroke:none;fill-rule:nonzero;fill:rgb(0%,0%,0%);fill-opacity:1;" d="M 4.46875 1.132812 C 4.363281 1.1875 4.332031 1.261719 4.417969 1.234375 C 4.484375 1.214844 4.511719 1.21875 4.496094 1.238281 C 4.492188 1.25 4.492188 1.253906 4.503906 1.246094 C 4.511719 1.242188 4.542969 1.246094 4.570312 1.257812 C 4.65625 1.296875 4.71875 1.253906 4.6875 1.183594 C 4.65625 1.109375 4.554688 1.085938 4.46875 1.132812 Z M 4.46875 1.132812 "/>
<path style=" stroke:none;fill-rule:nonzero;fill:rgb(0%,0%,0%);fill-opacity:1;" d="M 3.476562 1.253906 C 3.472656 1.265625 3.472656 1.277344 3.480469 1.285156 C 3.488281 1.296875 3.496094 1.289062 3.496094 1.269531 C 3.496094 1.230469 3.492188 1.230469 3.476562 1.253906 Z M 3.476562 1.253906 "/>
<path style=" stroke:none;fill-rule:nonzero;fill:rgb(0%,0%,0%);fill-opacity:1;" d="M 3.355469 1.5625 C 3.351562 1.574219 3.347656 1.582031 3.355469 1.585938 C 3.355469 1.59375 3.363281 1.585938 3.371094 1.570312 C 3.378906 1.542969 3.371094 1.539062 3.355469 1.5625 Z M 3.355469 1.5625 "/>
<path style=" stroke:none;fill-rule:nonzero;fill:rgb(0%,0%,0%);fill-opacity:1;" d="M 3.367188 2.808594 C 3.351562 2.851562 3.351562 2.855469 3.371094 2.824219 C 3.382812 2.804688 3.394531 2.785156 3.394531 2.777344 C 3.394531 2.753906 3.382812 2.765625 3.367188 2.808594 Z M 3.367188 2.808594 "/>
<path style=" stroke:none;fill-rule:nonzero;fill:rgb(0%,0%,0%);fill-opacity:1;" d="M 3.316406 2.941406 C 3.300781 2.953125 3.300781 2.992188 3.316406 2.992188 C 3.320312 2.992188 3.328125 2.980469 3.328125 2.960938 C 3.332031 2.925781 3.328125 2.921875 3.316406 2.941406 Z M 3.316406 2.941406 "/>
<path style=" stroke:none;fill-rule:nonzero;fill:rgb(0%,0%,0%);fill-opacity:1;" d="M 3.273438 3.136719 C 3.273438 3.214844 3.265625 3.21875 3.191406 3.171875 C 3.023438 3.066406 2.761719 3.121094 2.652344 3.285156 C 2.605469 3.351562 2.609375 3.378906 2.65625 3.34375 C 2.675781 3.332031 2.71875 3.320312 2.75 3.320312 C 2.796875 3.320312 2.820312 3.335938 2.933594 3.453125 C 3.085938 3.605469 3.113281 3.632812 3.167969 3.707031 C 3.207031 3.753906 3.210938 3.757812 3.21875 3.722656 C 3.226562 3.703125 3.242188 3.675781 3.253906 3.660156 C 3.339844 3.5625 3.347656 3.523438 3.324219 3.398438 C 3.316406 3.339844 3.300781 3.242188 3.292969 3.179688 C 3.28125 3.085938 3.277344 3.078125 3.273438 3.136719 Z M 3.273438 3.136719 "/>
<path style=" stroke:none;fill-rule:nonzero;fill:rgb(0%,0%,0%);fill-opacity:1;" d="M 5.726562 3.148438 C 5.726562 3.160156 5.726562 3.171875 5.730469 3.171875 C 5.734375 3.171875 5.738281 3.160156 5.746094 3.148438 C 5.75 3.136719 5.746094 3.125 5.738281 3.125 C 5.730469 3.125 5.726562 3.136719 5.726562 3.148438 Z M 5.726562 3.148438 "/>
<path style=" stroke:none;fill-rule:nonzero;fill:rgb(0%,0%,0%);fill-opacity:1;" d="M 2.566406 3.84375 C 2.570312 3.859375 2.582031 3.867188 2.585938 3.863281 C 2.589844 3.859375 2.585938 3.847656 2.574219 3.835938 C 2.558594 3.820312 2.558594 3.820312 2.566406 3.84375 Z M 2.566406 3.84375 "/>
<path style=" stroke:none;fill-rule:nonzero;fill:rgb(0%,0%,0%);fill-opacity:1;" d="M 5.453125 5.117188 C 5.453125 5.136719 5.457031 5.140625 5.460938 5.128906 C 5.464844 5.117188 5.464844 5.101562 5.460938 5.097656 C 5.457031 5.089844 5.449219 5.101562 5.453125 5.117188 Z M 5.453125 5.117188 "/>
<path style=" stroke:none;fill-rule:nonzero;fill:rgb(0%,0%,0%);fill-opacity:1;" d="M 6.097656 5.164062 C 6.085938 5.199219 6.09375 5.210938 6.128906 5.203125 C 6.148438 5.199219 6.148438 5.195312 6.128906 5.164062 C 6.109375 5.132812 6.105469 5.132812 6.097656 5.164062 Z M 6.097656 5.164062 "/>
<path style=" stroke:none;fill-rule:nonzero;fill:rgb(0%,0%,0%);fill-opacity:1;" d="M 5.847656 5.53125 C 5.847656 5.539062 5.855469 5.546875 5.863281 5.546875 C 5.871094 5.546875 5.878906 5.539062 5.878906 5.53125 C 5.878906 5.523438 5.871094 5.515625 5.863281 5.515625 C 5.855469 5.515625 5.847656 5.523438 5.847656 5.53125 Z M 5.847656 5.53125 "/>
<path style=" stroke:none;fill-rule:nonzero;fill:rgb(0%,0%,0%);fill-opacity:1;" d="M 5.414062 5.628906 C 5.421875 5.648438 5.429688 5.65625 5.4375 5.652344 C 5.445312 5.648438 5.445312 5.632812 5.433594 5.621094 C 5.410156 5.589844 5.40625 5.589844 5.414062 5.628906 Z M 5.414062 5.628906 "/>
<path style=" stroke:none;fill-rule:nonzero;fill:rgb(0%,0%,0%);fill-opacity:1;" d="M 5.460938 5.628906 C 5.46875 5.652344 5.472656 5.660156 5.476562 5.648438 C 5.480469 5.636719 5.476562 5.617188 5.46875 5.609375 C 5.457031 5.597656 5.457031 5.601562 5.460938 5.628906 Z M 5.460938 5.628906 "/>
<path style=" stroke:none;fill-rule:nonzero;fill:rgb(0%,0%,0%);fill-opacity:1;" d="M 6 5.769531 C 6 5.785156 6.003906 5.792969 6.007812 5.777344 C 6.015625 5.765625 6.011719 5.753906 6.007812 5.746094 C 6.003906 5.742188 6 5.75 6 5.769531 Z M 6 5.769531 "/>
</g>
</svg>
